<?xml version="1.0" encoding="UTF-8" standalone="no"?><svg xmlns="http://www.w3.org/2000/svg" xmlns:xlink="http://www.w3.org/1999/xlink" fill="#000000" height="109.1" preserveAspectRatio="xMidYMid meet" version="1" viewBox="0.0 -0.0 83.5 109.1" width="83.5" zoomAndPan="magnify"><g id="change1_1"><path class="s37" d="m 94.154224,117.75702 c 0.85195,0.0478 1.845871,0.30767 2.484951,0.63908 0.61518,0.30767 1.372489,0.99392 1.774798,1.56194 0.544283,0.75715 0.733571,1.34891 0.804633,2.34282 0.0478,0.92285 -0.0717,1.89319 -0.402321,3.00548 -0.283932,0.9466 -0.99391,2.41389 -1.680151,3.43138 -0.639091,0.97034 -1.893351,2.48495 -2.79262,3.36048 -0.87553,0.87569 -2.24818,2.08263 -3.029071,2.69781 -0.78104,0.61535 -2.271909,1.65658 -3.31315,2.34298 -1.041239,0.66251 -2.60317,1.6091 -3.478858,2.08248 -0.899272,0.47321 -1.585522,0.92301 -1.538193,0.99391 0.02389,0.0478 1.585511,-0.1657 3.478861,-0.47321 1.893181,-0.30768 5.655972,-0.89944 8.401112,-1.32533 2.745129,-0.40231 5.442955,-0.78089 6.034555,-0.85195 0.73371,-0.094 1.30157,0 1.84602,0.26035 0.4023,0.21303 1.0175,0.73356 1.3489,1.15962 0.30768,0.40231 0.89928,1.56177 1.27784,2.53211 0.37874,0.97033 1.04125,3.10012 1.41998,4.73312 0.40232,1.63284 1.1123,5.1826 1.56194,7.92774 0.44962,2.74529 1.1832,7.5729 1.65657,10.76767 0.44963,3.19493 1.13588,8.6852 1.5382,12.18764 0.37857,3.50244 0.87553,8.35379 1.08855,10.76768 0.26035,2.91084 0.37874,6.48434 0.37874,10.64945 -0.0239,3.45512 -0.11791,7.28881 -0.21303,8.56665 -0.16571,1.94067 -0.28393,2.36657 -0.78105,2.91085 -0.33125,0.37873 -1.32516,1.01765 -2.24817,1.44371 -0.92286,0.42589 -3.2421,1.30158 -5.20636,1.98782 -1.94049,0.66267 -5.939895,1.89319 -8.874476,2.72156 -2.934431,0.82821 -8.04612,2.20085 -11.35928,3.0528 -3.31315,0.85195 -8.117182,2.03516 -10.649292,2.60317 -2.532269,0.56786 -6.531661,1.41981 -8.874491,1.89319 -2.342819,0.44964 -5.797939,1.04124 -7.69112,1.30159 -1.89335,0.26034 -5.72704,0.7573 -8.5195,1.11229 -5.017051,0.6152 -5.088121,0.6152 -6.010971,0.18929 -0.54444,-0.26035 -1.18336,-0.87569 -1.60925,-1.51461 -0.37874,-0.5916 -1.08872,-2.1298 -1.60926,-3.43138 -0.49696,-1.30159 -1.30158,-3.64457 -1.77496,-5.20634 -0.47322,-1.56194 -1.37249,-4.92241 -2.011571,-7.45468 -0.638919,-2.53211 -1.58552,-6.79186 -2.10621,-9.46609 -0.52054,-2.67407 -1.25411,-6.98114 -1.65642,-9.58431 -0.40232,-2.60317 -0.92301,-6.60273 -1.18336,-8.87449 -0.26035,-2.27192 -0.61534,-5.72704 -0.78089,-7.69129 -0.1657,-1.9405 -0.30767,-6.69721 -0.30767,-10.5309 0,-6.03471 0.0478,-7.07595 0.37857,-7.5729 0.30767,-0.47338 0.33141,-0.70999 0.11791,-1.13604 -0.21303,-0.4259 -0.16571,-0.63893 0.23661,-1.18321 0.37873,-0.49695 1.15962,-0.87553 3.54976,-1.65657 1.680321,-0.56786 6.413281,-1.89319 10.507491,-2.91084 4.094041,-1.04124 7.549161,-1.91677 7.691121,-1.96409 0.14181,-0.0239 -0.40231,-0.26035 -1.1832,-0.47338 -0.78105,-0.23661 -2.27192,-0.80463 -3.31315,-1.30158 -1.041241,-0.47338 -2.532271,-1.32533 -3.313161,-1.84587 -0.78089,-0.54428 -2.10621,-1.65658 -2.93442,-2.48494 -0.80463,-0.80463 -1.91693,-2.1298 -2.43762,-2.91069 -0.49696,-0.78104 -1.13588,-2.01156 -1.419811,-2.72155 -0.26035,-0.70998 -0.54444,-2.05889 -0.615349,-2.95816 -0.094,-1.37265 -0.0239,-1.84587 0.37858,-2.76888 0.37873,-0.82821 0.80463,-1.30158 1.53835,-1.72748 0.54428,-0.33141 1.53819,-0.66266 2.17712,-0.73372 0.78104,-0.094 1.72764,-0.0239 2.72155,0.23676 0.85195,0.21287 2.390141,0.80463 3.431381,1.30159 1.0414,0.49696 2.65049,1.44355 3.54976,2.08247 0.89927,0.63892 2.67424,2.12996 3.90476,3.31316 1.23068,1.1832 3.052961,3.12387 4.023141,4.28333 0.97033,1.18336 1.798539,2.12995 1.82228,2.10621 0.0478,-0.0239 0.16555,-0.73357 0.307668,-1.58552 0.141812,-0.85195 0.520542,-2.12995 0.851951,-2.83977 0.33125,-0.70999 0.85195,-1.65658 1.183201,-2.0589 0.307671,-0.42605 0.923009,-0.99391 1.348909,-1.25426 0.40231,-0.26035 1.13588,-0.47338 1.585521,-0.47338 0.44963,0 1.18336,0.21303 1.609249,0.47338 0.402312,0.26035 0.875691,0.70998 1.0414,1.0175 0.141801,0.28409 0.402151,1.01765 0.780881,2.76887 l 1.585521,-2.08247 c 0.85195,-1.13604 2.50853,-3.05281 3.668149,-4.28349 1.13588,-1.23052 3.10012,-3.07639 4.330811,-4.11762 1.230519,-1.0414 3.21835,-2.50853 4.377971,-3.28958 1.159619,-0.78088 2.863519,-1.7748 3.786529,-2.20085 0.922851,-0.44964 2.39014,-0.99392 3.26567,-1.25427 0.875692,-0.2366 1.84603,-0.49695 2.12996,-0.56786 0.283932,-0.0956 1.159621,-0.1179 1.940502,-0.0478 z m -5.39562,4.4492 c -0.473381,0.21286 -1.65658,0.82821 -2.579592,1.39623 -0.9466,0.54427 -2.579428,1.65657 -3.62067,2.43746 -1.0414,0.80463 -2.839939,2.34282 -3.999558,3.43154 -1.159462,1.08856 -2.958002,3.00548 -3.975661,4.23601 -1.041231,1.23052 -2.484941,3.14745 -3.242091,4.25974 -0.757309,1.1123 -1.680321,2.53211 -2.05889,3.17119 l -0.6864,1.15962 c 1.278001,-0.26034 2.88726,-0.7573 4.378129,-1.25426 1.490872,-0.47338 3.881012,-1.44371 5.324722,-2.10621 1.443551,-0.68641 3.833701,-1.96425 5.32457,-2.86352 1.491031,-0.87569 3.668142,-2.2955 4.82776,-3.10013 1.159632,-0.82837 2.958172,-2.41388 4.023141,-3.52618 1.301591,-1.37265 2.177121,-2.55585 2.721401,-3.66815 0.54428,-1.13588 0.80463,-2.01157 0.828368,-2.79246 0.02389,-0.97033 -0.0717,-1.23052 -0.568018,-1.60925 -0.4259,-0.35499 -0.946592,-0.47322 -1.893192,-0.44964 -0.70998,0.0239 -1.893178,0.21303 -2.603169,0.44964 -0.709981,0.23661 -1.703901,0.61534 -2.17727,0.82837 z m -48.963444,8.49575 c 0,0.28393 0.23676,1.20694 0.49695,2.05889 0.26035,0.85195 0.82837,2.08248 1.27801,2.72156 0.42589,0.6625 1.20694,1.60909 1.7039,2.10621 0.52053,0.52054 1.46729,1.34891 2.10621,1.86945 0.662661,0.52069 1.893191,1.30158 2.792461,1.72764 0.87569,0.44963 2.50852,1.06481 3.66814,1.39622 1.13588,0.33126 3.19477,0.73357 4.591001,0.89928 1.39623,0.1418 2.57959,0.21302 2.650501,0.1179 0.0717,-0.1179 -0.686253,-1.23068 -1.680163,-2.48494 -1.017659,-1.25427 -2.697819,-3.19478 -3.739209,-4.28333 -1.04124,-1.1123 -2.74514,-2.69782 -3.78637,-3.52619 -1.04124,-0.8282 -2.86352,-1.98783 -4.02314,-2.57943 -1.656581,-0.82836 -2.484791,-1.11229 -3.667991,-1.20694 -1.25427,-0.094 -1.633,-0.0478 -1.98799,0.26019 -0.21287,0.23677 -0.40231,0.63908 -0.40231,0.92301 z m 24.280641,6.67363 c -0.189449,0.66267 -0.354989,1.94051 -0.331409,2.83978 0.02389,0.89927 0.094,1.91693 0.18928,2.24818 0.18945,0.56802 0.18945,0.56802 0.591759,-0.35499 0.236612,-0.52054 0.615191,-1.79854 0.87553,-2.83978 0.236612,-1.04124 0.449641,-2.31924 0.426062,-2.83978 0,-0.5207 -0.094,-1.15962 -0.18945,-1.41997 -0.165542,-0.42589 -0.236612,-0.40231 -0.709821,0.35499 -0.284089,0.44964 -0.66266,1.37265 -0.851951,2.01157 z m 21.180352,5.82169 c -5.655969,0.92285 -10.95696,1.7748 -11.761582,1.9405 l -1.491038,0.28393 c 3.147611,2.10622 4.40172,3.21851 5.277409,4.25975 0.757301,0.89927 1.869601,2.62691 2.437461,3.78653 0.56802,1.15946 1.0414,2.39014 1.0414,2.7214 0,0.33141 -0.165709,0.82837 -0.354989,1.13604 -0.213032,0.30751 -0.591762,0.52053 -0.9466,0.52053 -0.331412,0 -0.757301,-0.0701 -0.97033,-0.1657 -0.213032,-0.11791 -0.92301,-1.27785 -1.53819,-2.60317 -0.92302,-1.96409 -1.467303,-2.74514 -2.745301,-4.04672 -1.206939,-1.20694 -2.106211,-1.86945 -3.62067,-2.60317 -1.11229,-0.54428 -2.413881,-1.04124 -2.88726,-1.1123 L 66.797192,147.197 c 0.213029,2.2955 0.426061,4.82761 0.615341,7.09953 0.189288,2.27192 0.66267,6.95756 1.041239,10.41268 0.37873,3.45512 0.97033,8.14092 1.301591,10.41268 0.307668,2.27192 0.615339,4.16511 0.638919,4.18885 0.0478,0.0239 3.005481,-0.59176 6.578992,-1.37265 3.573499,-0.75731 9.4425,-1.98783 13.015849,-2.69781 3.5735,-0.68625 7.572902,-1.44355 8.874491,-1.65658 1.301586,-0.21303 3.810116,-0.54428 5.561326,-0.73357 1.75123,-0.18944 3.21852,-0.37873 3.26584,-0.40231 0.0239,-0.0239 -0.1657,-1.7039 -0.42605,-3.71547 -0.28393,-2.01157 -0.87553,-6.10561 -1.32517,-9.1111 -0.44964,-3.00548 -1.08856,-6.88665 -1.39624,-8.63788 -0.3314,-1.75122 -0.923,-4.25974 -1.30158,-5.56133 -0.37873,-1.30158 -0.89926,-2.86352 -1.15961,-3.4787 -0.44965,-1.0414 -0.56803,-1.13604 -1.25428,-1.1123 -0.42605,0.0239 -1.798535,0.18929 -3.029216,0.37858 -1.230519,0.18928 -6.886501,1.08871 -12.542481,1.98798 z m -25.369201,7.78577 c -0.5916,0.70998 -1.774801,2.31924 -2.603169,3.54976 -0.851951,1.23068 -2.200852,3.36048 -3.029062,4.73312 -0.80463,1.37249 -1.77496,3.10013 -2.15354,3.85744 -0.37873,0.73356 -0.94659,1.51461 -1.278,1.7039 -0.49696,0.28393 -0.70999,0.30767 -1.32517,0.0717 -0.44963,-0.18929 -0.78104,-0.52054 -0.85195,-0.89927 -0.0717,-0.33126 -0.0717,-0.80463 0.0239,-1.06482 0.0717,-0.26035 0.78105,-1.633 1.58568,-3.07655 0.78088,-1.44355 2.24818,-3.83385 3.21835,-5.32472 0.99391,-1.49088 2.41388,-3.54977 3.171191,-4.54368 1.159621,-1.53819 1.30158,-1.82228 0.87553,-1.72764 -0.30751,0.0717 -3.147451,0.70998 -6.342221,1.44371 -3.19477,0.73356 -7.667551,1.84586 -9.939311,2.4612 -2.27191,0.61519 -5.040791,1.41981 -6.15309,1.75122 -1.112141,0.33126 -2.106211,0.68625 -2.248181,0.80447 -0.16554,0.094 -0.18928,3.10029 -0.094,8.6852 0.094,5.13544 0.30767,10.12876 0.54428,12.54264 0.21302,2.20086 0.61534,5.67956 0.87569,7.69113 0.2366,2.01157 0.49695,3.95207 0.56786,4.33081 0.094,0.47321 0.23676,0.61518 0.54443,0.52054 0.21287,-0.0478 1.94051,-0.56786 3.833701,-1.15962 1.89318,-0.56786 5.46669,-1.58552 7.927891,-2.27176 2.46121,-0.68625 7.97522,-2.0589 12.21123,-3.05281 4.259742,-0.99391 7.785931,-1.84586 7.856832,-1.91693 0.0717,-0.0717 0.02389,-0.70998 -0.094,-1.41997 -0.117899,-0.70982 -0.638919,-4.70938 -1.159619,-8.87432 -0.520531,-4.16511 -1.206942,-10.53107 -1.538192,-14.12815 -0.331409,-3.62083 -0.591598,-7.00505 -0.591598,-7.52559 0,-0.52069 -0.094,-0.94659 -0.189452,-0.94659 -0.094,0 -0.709819,0.56786 -1.372478,1.25427 -0.662671,0.6625 -1.680322,1.82212 -2.271922,2.5321 z m 38.740053,25.91347 c -2.082631,0.33126 -6.176682,1.08856 -9.111102,1.68016 -2.934579,0.5916 -7.97522,1.65658 -11.241051,2.36657 -3.242088,0.70998 -6.271319,1.37264 -6.697211,1.46729 -0.426058,0.094 -0.757309,0.21286 -0.757309,0.28393 0,0.0717 0.331251,2.03515 0.709991,4.37813 0.40231,2.34282 1.301578,7.14685 2.011569,10.64929 0.709822,3.50244 1.86944,8.77984 2.60317,11.71427 0.709821,2.93458 1.490871,5.869 1.7039,6.50792 0.189281,0.66266 0.42589,1.25426 0.520542,1.34891 0.0717,0.094 2.816188,-0.52054 6.058289,-1.37249 3.265832,-0.85195 7.99895,-2.12995 10.53106,-2.83994 2.532272,-0.70982 6.176687,-1.82212 8.117187,-2.48478 1.91693,-0.63893 4.16511,-1.44356 4.96973,-1.79855 l 1.51462,-0.66266 c 0.28393,-7.33614 0.30751,-11.38302 0.23661,-13.72584 -0.094,-2.34282 -0.47338,-7.50184 -0.87569,-11.47766 -0.40232,-3.97565 -0.7809,-7.21791 -0.80463,-7.21791 -0.0478,-0.0239 -1.34892,0.11791 -2.88711,0.26035 -1.56193,0.16571 -4.52009,0.56802 -6.602565,0.92301 z m -49.933624,11.02803 c -2.461201,0.6625 -6.413281,1.79854 -8.756101,2.50852 -2.34298,0.70983 -4.330811,1.34891 -4.42545,1.44355 -0.094,0.094 0.18928,2.1298 0.63892,4.54368 0.44963,2.41389 1.25426,6.2949 1.79854,8.63788 0.5207,2.34282 1.37265,5.7033 1.86961,7.45452 0.52053,1.75122 1.3489,4.47262 1.89318,6.03455 0.54428,1.56193 1.20694,3.24225 1.44355,3.73921 0.23677,0.47322 0.5916,0.92285 0.75731,0.99391 0.1418,0.094 3.052801,-0.18928 6.437021,-0.5916 3.38406,-0.40231 7.12311,-0.89927 8.282731,-1.08871 1.159619,-0.18929 3.9994,-0.70983 6.271321,-1.15962 2.271919,-0.47322 5.466689,-1.13588 7.09952,-1.49088 2.57959,-0.5916 2.958169,-0.73356 2.910851,-1.13587 0,-0.23661 -0.733571,-3.21852 -1.609262,-6.60257 -0.851951,-3.38422 -2.12979,-9.0402 -2.839779,-12.54264 -0.70998,-3.50244 -1.609262,-8.33021 -2.011571,-10.69661 -0.378569,-2.3903 -0.709981,-4.37813 -0.709981,-4.44904 0,-0.0717 -0.189288,-0.1179 -0.40232,-0.094 -0.236609,0 -3.52602,0.7573 -7.28881,1.65658 -3.762788,0.89927 -8.89807,2.17727 -11.35928,2.83993 z" fill="#004aad" fill-rule="evenodd" transform="translate(-29.548 -117.716)"/></g></svg>